<?xml version="1.0" encoding="UTF-8" standalone="no"?>
<svg width="60px" height="60px" viewBox="0 0 60 60" version="1.1" xmlns="http://www.w3.org/2000/svg" xmlns:xlink="http://www.w3.org/1999/xlink" xmlns:sketch="http://www.bohemiancoding.com/sketch/ns">
    <!-- Generator: Sketch 3.2.2 (9983) - http://www.bohemiancoding.com/sketch -->
    <title>Fruitlove</title>
    <desc>Created with Sketch.</desc>
    <defs></defs>
    <g id="stroked" stroke="none" stroke-width="1" fill="none" fill-rule="evenodd" sketch:type="MSPage">
        <g id="Medical" sketch:type="MSLayerGroup" transform="translate(-140.000000, -837.000000)" stroke="#00b3cf" stroke-width="2">
            <g id="Fruidlove" transform="translate(148.000000, 840.000000)" sketch:type="MSShapeGroup">
                <path d="M10.7701536,34.3707963 C9.70380393,30.8372243 13.6346797,26.9063485 17.1682516,26.9063485 C19.3936922,26.9063485 21.3537578,28.0425541 22.5,29.7665168 C23.6462422,28.0425541 25.6063078,26.9063485 27.8317484,26.9063485 C31.3653203,26.9063485 35.2961961,30.8372243 34.2298464,34.3707963 C33.1634967,37.9043682 22.5,45.9063485 22.5,45.9063485 C22.5,45.9063485 11.8365033,37.9043682 10.7701536,34.3707963 Z" id="Oval-247" stroke-linecap="round" stroke-linejoin="round"></path>
                <path d="M18.796378,52.6704182 C11.537213,54.461462 3.671744,48.0518475 1.22836129,38.3541436 C-1.21502142,28.6564396 2.6889415,19.3429694 9.94810652,17.5519255 C14.3590387,16.4636223 18.9938316,18.4031815 22.5,22.2684554 C26.0061684,18.4031815 30.6409613,16.4636223 35.0518935,17.5519255 C42.3110585,19.3429694 46.2150214,28.6564396 43.7716387,38.3541436 C41.328256,48.0518475 33.462787,54.461462 26.203622,52.6704182 C24.8450175,52.3352115 22.4999988,51.8866936 22.4999988,51.8866936 C22.4999988,51.8866936 20.1549825,52.3352115 18.796378,52.6704182 Z" id="Oval-183" stroke-linecap="square"></path>
                <path d="M21.0223567,16.251816 C24.6955992,16.2350876 28.1543685,14.4587368 30.0155256,11.2351182 C31.8766826,8.01149963 31.6856629,4.12794213 29.8635288,0.938456646 C26.1902864,0.955184989 22.731517,2.73153581 20.87036,5.95515439 C19.0092029,9.17877297 19.2002226,13.0623305 21.0223567,16.251816 L21.0223567,16.251816 Z" id="Oval-181" stroke-linecap="square"></path>
            </g>
        </g>
    </g>
</svg>