<?xml version="1.0" encoding="UTF-8" standalone="no"?>
<svg width="60px" height="60px" viewBox="0 0 60 60" version="1.1" xmlns="http://www.w3.org/2000/svg" xmlns:xlink="http://www.w3.org/1999/xlink" xmlns:sketch="http://www.bohemiancoding.com/sketch/ns">
    <!-- Generator: Sketch 3.2.2 (9983) - http://www.bohemiancoding.com/sketch -->
    <title>Maledoc</title>
    <desc>Created with Sketch.</desc>
    <defs></defs>
    <g id="stroked" stroke="none" stroke-width="1" fill="none" fill-rule="evenodd" sketch:type="MSPage">
        <g id="Medical" sketch:type="MSLayerGroup" transform="translate(-860.000000, -837.000000)" stroke-linecap="square" stroke="#00b3cf" stroke-width="2">
            <g id="Maledoc" transform="translate(871.000000, 839.000000)" sketch:type="MSShapeGroup">
                <path d="M13,46 L7,46" id="Line"></path>
                <path d="M10,43 L10,49" id="Line-106"></path>
                <ellipse id="Oval-307" transform="translate(19.898567, 17.500000) scale(-1, 1) translate(-19.898567, -17.500000) " cx="19.8985667" cy="17.5" rx="16.5138105" ry="16.5138105"></ellipse>
                <path d="M28,18 C28,16.3431458 26.6568542,15 25,15 C23.3431458,15 22,16.3431458 22,18" id="Oval-305"></path>
                <path d="M17,18 C17,16.3431458 15.6568542,15 14,15 C12.3431458,15 11,16.3431458 11,18" id="Oval-306"></path>
                <path d="M16,38 L7.99845994,38 C3.58493529,38 0,41.581722 0,46 L0,54 L40,54 L40,46 C40,41.5907123 36.4189675,38 32.0015401,38 L24,38 L24,34 L16,34 L16,38 Z" id="Rectangle-263"></path>
                <path d="M34.1229109,9.65830297 C32.1306963,11.1299906 29.6669489,12 27,12 C22.3912196,12 18.3892729,9.40183594 16.3789535,5.59030136 C14.2162992,7.70007553 11.2599564,9 8,9 C7.17689095,9 6.37313776,8.91712772 5.59662902,8.75927174 C8.51435011,4.0991503 13.6940957,1 19.5976866,1 C25.8732307,1 31.330845,4.50197384 34.1229109,9.65830298 Z" id="Oval-311"></path>
            </g>
        </g>
    </g>
</svg>